<svg width="299" height="147" viewBox="0 0 299 147" fill="none" xmlns="http://www.w3.org/2000/svg">
<path d="M0 74V144H13.3333H26.6667V74V3.99999H13.3333H0V74Z" fill="white"/>
<path d="M49 73.3333V144H61.6667H74.3333L74.6 108.267C74.7333 88.6667 74.6 63.0667 74.3333 51.3333C74.2 39.6 74.3333 30.4 74.8667 30.8C75.5333 31.4667 83 59.7333 97.2667 116.267L104.2 144H115H125.933L129.933 127.6C137.667 96.9333 154.6 30 154.867 29.7333C154.867 29.6 154.733 55.3333 154.467 86.8L154.067 144H167.533H181V74V3.99999H160.467H139.933L138.6 8.26666C137.933 10.6667 136.333 16 135.267 20C125.8 53.0667 123.533 61.2 122.467 64.6667C121.8 66.8 120.2 73.4667 119 79.3333C115.4 96.4 115.133 96.5333 111.933 83.3333C106.867 62.5333 93 12.8 90.4667 6.26666L89 2.66666H69H49V73.3333Z" fill="white"/>
<path d="M235.524 1.30002C226.324 3.70003 220.857 6.76669 215.391 12.5C204.191 24.3667 202.457 33.5667 203.124 77.9667C203.791 117.567 204.724 121.967 214.191 132.5C223.524 142.9 232.991 146.367 252.057 146.367C275.924 146.233 291.524 134.633 296.857 112.9C298.724 105.3 298.991 98.2334 298.591 69.3C298.191 36.9 297.924 34.2334 294.991 26.7667C290.724 15.9667 280.857 6.23336 270.857 2.90003C261.524 -0.166642 244.191 -0.966642 235.524 1.30002ZM259.391 27.4334C266.457 30.1 266.991 33.4334 266.591 73.8334C266.191 109.967 266.057 110.9 263.124 115.033C256.457 124.367 241.924 123.433 236.857 113.433C234.457 108.633 234.191 104.9 233.791 77.4334C233.257 39.9667 233.657 36.3667 239.524 30.5C243.257 26.7667 244.857 26.1 249.924 26.1C253.257 26.1 257.524 26.6334 259.391 27.4334Z" fill="white"/>
</svg>
