<svg width="1504" height="394" viewBox="0 0 1504 394" fill="none" xmlns="http://www.w3.org/2000/svg">
<path d="M318.667 12.6726V24.8059L331.733 24.4059L344.667 24.0059L345.067 12.2726L345.467 0.672574H332H318.667V12.6726Z" fill="white"/>
<path d="M0 72.0059V142.006H13.3333H26.6667V72.0059V2.00585H13.3333H0V72.0059Z" fill="white"/>
<path d="M792 72.6724V143.339H804.667H817.333L817.6 107.606C817.733 88.0058 817.6 62.4058 817.333 50.6724C817.2 38.9391 817.333 29.7391 817.867 30.1391C818.533 30.8058 826 59.0724 840.267 115.606L847.2 143.339H858H868.933L872.933 126.939C880.667 96.2724 897.6 29.3391 897.867 29.0724C897.867 28.9391 897.733 54.6724 897.467 86.1391L897.067 143.339H910.533H924V73.3391V3.3391H903.467H882.933L881.6 7.60577C880.933 10.0058 879.333 15.3391 878.267 19.3391C868.8 52.4058 866.533 60.5391 865.467 64.0058C864.8 66.1391 863.2 72.8058 862 78.6724C858.4 95.7391 858.133 95.8724 854.933 82.6724C849.867 61.8724 836 12.1391 833.467 5.60577L832 2.00577H812H792V72.6724Z" fill="white"/>
<path d="M249.333 22.0058V40.6725H242H234.667V50.6725V60.6724H241.867H249.067L249.6 94.4058L250 128.272L253.733 133.072C255.733 135.872 259.333 138.939 261.467 140.139C266.4 142.672 281.333 144.006 289.867 142.806L296 141.872V131.872V122.006H290C286.533 122.006 282.133 121.072 280 120.006L276 117.872V89.3391V60.6724H286H296V50.6725V40.6725H286H276.133L275.733 22.2725L275.333 4.00579L262.4 3.60579L249.333 3.20579V22.0058Z" fill="white"/>
<path d="M1220 27.7391C1220 41.2058 1219.6 52.5391 1219.2 52.9391C1218.8 53.4725 1215.87 51.2058 1212.8 48.0058C1200.13 35.4725 1177.73 37.2058 1170.53 51.3391C1166.93 58.4058 1165.33 71.2058 1165.33 94.6725C1165.33 124.939 1167.73 133.606 1178.13 141.472C1182.27 144.672 1184.27 145.206 1191.87 145.206C1202.53 145.206 1210.13 141.472 1215.47 133.739C1217.47 130.939 1219.6 128.672 1220.13 128.672C1220.8 128.672 1221.33 132.272 1221.33 136.672V144.672H1234H1246.67V74.0058V3.33914H1233.33H1220V27.7391ZM1208.13 62.1391C1210.67 63.0725 1214 64.9391 1215.73 66.4058C1218.67 69.0725 1218.67 69.7391 1218.4 92.5391L1218 115.872L1213.47 118.939C1208 122.672 1201.33 122.939 1197.2 119.472C1194 116.939 1194 116.539 1194 92.0058V67.0725L1197.73 63.8725C1202 60.1391 1202.13 60.1391 1208.13 62.1391Z" fill="white"/>
<path d="M1371.6 4.2726C1371.07 4.6726 1370.67 36.5393 1370.67 74.9393V144.673H1384H1397.33V74.8059V4.93927L1394.4 4.13927C1390.27 3.0726 1372.67 3.0726 1371.6 4.2726Z" fill="white"/>
<path d="M1476 14.6725V26.0058H1489.2C1504.27 26.0058 1504 26.1391 1504 14.6725C1504 3.20579 1504.27 3.33912 1489.2 3.33912H1476V14.6725Z" fill="white"/>
<path d="M377.333 22.6724V40.6724H369.333H361.333V50.6724V60.5391L369.067 60.9391L376.667 61.3391L376.133 88.0058C375.6 120.539 376.933 129.206 383.467 135.872C388.933 141.606 394.933 143.339 408 143.339C424.133 143.339 424 143.339 424 131.872V122.006H416.933C412.8 122.006 408.8 121.206 406.933 119.872C404 117.872 404 117.339 404 89.2058V60.6724H413.333H422.667V50.6724V40.6724H413.333H404V22.6724V4.67244H390.667H377.333V22.6724Z" fill="white"/>
<path d="M557.333 22.6726V40.6726H550H542.667V50.6726V60.6726H550H557.333V90.9393C557.333 107.739 558 123.606 558.533 126.539C560 132.806 566.8 140.006 573.2 142.273C578.4 144.006 597.867 144.539 601.733 143.073C603.6 142.273 604 140.406 604 132.139V122.273H597.2C593.333 122.139 589.067 121.206 587.2 120.006L584 118.006V89.3393V60.6726H594H604.133L603.733 50.9393L603.333 41.3393L593.733 40.9393L584 40.5393V22.6726V4.6726H570.667H557.333V22.6726Z" fill="white"/>
<path d="M1424 74.6726V144.673H1437.33H1450.67V74.6726V4.6726H1437.33H1424V74.6726Z" fill="white"/>
<path d="M96.3999 40.8059C90.9333 43.4725 84.5333 49.6059 79.7333 56.6725C77.4666 60.0059 77.4666 59.8725 77.4666 50.2725L77.3333 40.6725H65.3333H53.3333V91.3392V142.006H66.6666H79.9999V106.806V71.6059L85.0666 67.6059C93.8666 60.6725 101.2 60.5392 104.667 67.3392C106.267 70.5392 106.667 77.8725 106.667 106.673V142.006H120H133.333V102.273C133.2 60.5392 132.533 53.2059 128.4 47.4725C122 38.6725 107.2 35.6059 96.3999 40.8059Z" fill="white"/>
<path d="M174.667 40.1392C162 45.6059 156 54.9392 156 69.2059C156 73.8726 156.933 79.7392 158 82.4059C160.533 88.6726 170.267 96.6726 183.333 103.339C196.4 110.139 198.667 112.139 198.667 116.673C198.667 127.339 182.933 128.406 172 118.539L166.933 113.873L160.8 122.939L154.667 132.006L157.6 134.539C168.133 143.339 188.133 147.073 201.467 142.673C210.933 139.473 220 130.273 222.4 121.606C224.4 113.606 224.4 111.873 222 103.739C218.8 93.0726 211.6 86.0059 195.2 77.8726C187.467 73.8726 180.533 69.6059 179.733 68.2726C176.8 62.6726 182 56.6726 189.867 56.6726C191.6 56.6726 196.4 58.4059 200.667 60.5392C205.067 62.8059 209.067 64.1392 209.733 63.7392C212 62.2726 220.133 48.5392 219.333 47.3392C218.4 45.8726 212.133 42.8059 204.133 40.0059C196.8 37.4726 180.8 37.4726 174.667 40.1392Z" fill="white"/>
<path d="M651.333 40.4059C631.6 47.2059 625.333 63.2059 627.2 101.873C628.267 121.473 630.8 128.939 639.467 136.406C646 142.273 654.267 144.673 667.467 144.673C679.6 144.673 687.333 142.139 694.4 136.139C704.933 126.806 706 122.806 706 92.0059V65.3393L702 57.4726C699.867 53.0726 695.867 47.8726 693.2 45.7393C684 38.4059 664.533 35.8726 651.333 40.4059ZM674.133 61.3393C678.8 64.5393 680.267 73.2059 679.733 94.8059C679.2 118.006 678 122.006 670.533 123.873C664.4 125.339 658.8 122.806 656 117.339C653.467 112.139 652.4 77.2059 654.533 69.8726C657.333 60.8059 667.2 56.4059 674.133 61.3393Z" fill="white"/>
<path d="M981.333 40.5393C962.4 46.2726 956.133 59.3393 956 92.9393C956 118.406 959.2 129.873 968.667 137.739C975.333 143.206 981.467 144.673 996.933 144.673C1008.8 144.673 1010.93 144.273 1017.47 140.939C1031.2 134.006 1036 122.006 1036 94.2726C1036 76.6726 1034.13 63.4726 1030.53 56.5393C1027.2 49.7393 1018.27 42.5393 1011.33 40.8059C1004.8 39.2059 986.4 39.0726 981.333 40.5393ZM1004.93 64.0059C1007.07 66.5393 1008 69.6059 1008.67 78.2726C1009.2 84.4059 1009.33 92.2726 1008.93 96.0059C1008.53 99.6059 1008.13 106.139 1008.13 110.406C1008 116.806 1007.47 118.673 1004.67 121.339C1000.27 125.873 991.867 126.006 987.467 121.606C984.667 118.806 984.133 116.673 983.333 104.006C982 84.0059 983.067 69.2059 986.4 64.8059C990.933 58.6726 999.733 58.2726 1004.93 64.0059Z" fill="white"/>
<path d="M1299.07 40.6726C1286.67 42.5393 1277.73 50.1393 1273.87 62.406C1270.93 71.8726 1269.87 101.873 1272 114.673C1274 126.673 1277.6 133.206 1285.07 138.939C1293.07 145.073 1299.6 146.406 1316 145.606C1327.47 145.073 1340.8 142.273 1343.73 139.873C1344 139.739 1343.47 135.073 1342.67 129.606L1341.07 119.606L1333.47 122.939C1325.07 126.673 1309.6 127.739 1304.4 124.939C1299.87 122.406 1296 113.739 1296 106.006V99.3393H1320H1344V87.606C1344 64.9393 1339.47 52.2726 1328.93 45.206C1324.53 42.406 1311.87 38.9393 1307.33 39.4726C1306.67 39.606 1302.93 40.1393 1299.07 40.6726ZM1314.53 58.806C1318.8 61.8726 1321.33 68.6726 1321.33 77.3393V84.806L1309.07 84.406L1296.67 84.006L1296.27 76.806C1295.73 68.406 1297.73 62.9393 1302.4 59.3393C1306.4 56.1393 1310.4 56.006 1314.53 58.806Z" fill="white"/>
<path d="M318.667 91.3392V142.006H332H345.333V91.3392V40.6725H332H318.667V91.3392Z" fill="white"/>
<path d="M446.667 84.2726C446.667 125.073 446.8 128.139 449.333 133.339C453.2 141.206 459.867 144.673 471.467 144.673C482.8 144.673 489.333 141.339 496 132.273L500.667 126.006L501.333 134.273L502 142.673L513.467 143.073L525.067 143.473L526 101.739C526.533 78.8059 526.667 55.7393 526.4 50.6726L526 41.3393L513.067 40.9393L500 40.5393V75.0726C500 108.539 499.867 109.739 497.067 113.339C494.4 116.806 485.2 121.873 481.6 122.006C480.667 122.006 478.4 120.539 476.667 118.673L473.333 115.473V78.0059V40.6726H460H446.667V84.2726Z" fill="white"/>
<path d="M1104.4 43.4726C1101.33 44.8059 1097.07 48.1393 1095.07 50.8059C1086 62.5393 1086.53 62.5393 1087.07 51.6059L1087.6 42.0059H1075.07H1062.67V93.3393V144.673H1076H1089.33V109.473V74.2726L1094.67 69.4726C1098.8 65.7393 1101.07 64.6726 1105.07 64.6726C1115.73 64.6726 1116 66.0059 1116 108.539V144.673H1129.47H1142.93L1142.4 100.273C1142 56.6726 1141.87 55.8726 1138.93 51.0726C1134.13 43.4726 1128.53 40.6726 1118.53 40.6726C1112.93 40.8059 1108.13 41.6059 1104.4 43.4726Z" fill="white"/>
<path d="M1477.33 94.0059V144.673H1490.67H1504V94.0059V43.3393H1490.67H1477.33V94.0059Z" fill="white"/>
<path d="M410 217.206C400.8 219.606 395.333 222.672 389.867 228.406C378.667 240.272 376.933 249.472 377.6 293.872C378.267 333.472 379.2 337.872 388.667 348.406C398 358.806 407.467 362.272 426.533 362.272C450.4 362.139 466 350.539 471.333 328.806C473.2 321.206 473.467 314.139 473.067 285.206C472.667 252.806 472.4 250.139 469.467 242.672C465.2 231.872 455.333 222.139 445.333 218.806C436 215.739 418.667 214.939 410 217.206ZM433.867 243.339C440.933 246.006 441.467 249.339 441.067 289.739C440.667 325.872 440.533 326.806 437.6 330.939C430.933 340.272 416.4 339.339 411.333 329.339C408.933 324.539 408.667 320.806 408.267 293.339C407.733 255.872 408.133 252.272 414 246.406C417.733 242.672 419.333 242.006 424.4 242.006C427.733 242.006 432 242.539 433.867 243.339Z" fill="white"/>
<path d="M170.667 243.606V269.073L165.733 263.739C159.467 257.073 152.533 254.006 143.067 254.006C129.467 254.006 121.867 260.673 118.8 275.073C116.8 284.539 116.933 330.539 118.933 339.339C121.2 349.206 128.667 357.339 137.067 359.206C149.333 361.739 161.6 356.806 168.8 346.139L172 341.339V349.739V358.006H184.667H197.333V288.006V218.006H184H170.667V243.606ZM165.733 279.473L170.667 282.673V305.606V328.406L166.533 331.873C160.667 336.806 151.6 337.206 147.733 332.406C145.6 330.006 145.333 326.673 145.333 306.006C145.333 283.739 145.467 282.139 148.267 278.673C150.667 275.606 151.867 275.206 156 275.739C158.667 276.006 163.067 277.739 165.733 279.473Z" fill="white"/>
<path d="M552.933 218.939C552.4 219.339 552 230.806 552 244.273V268.806L547.067 263.473C543.333 259.739 539.867 257.606 534.133 256.006C521.067 252.139 510.267 255.739 504.4 265.606C501.2 271.073 500.8 273.606 499.733 291.873C498.267 317.873 499.867 339.339 503.733 347.473C507.733 355.739 514.267 359.739 524.533 360.406C534.667 360.939 542.667 357.206 548.667 348.939C550.933 346.006 553.067 343.473 553.733 343.473C554.267 343.339 554.667 346.939 554.667 351.339V359.339H567.333H580V288.673V218.006H566.933C559.733 218.006 553.333 218.406 552.933 218.939ZM546.8 279.739L551.333 282.806L551.733 305.873C552 328.139 552 329.206 549.2 332.139C545.867 335.606 539.067 337.473 533.867 336.139C527.733 334.539 526.4 328.273 526.933 304.673C527.467 280.006 528.667 276.673 537.2 276.673C540.267 276.673 544 277.873 546.8 279.739Z" fill="white"/>
<path d="M998.667 290.006V360.673H1012H1025.33V290.006V219.339H1012H998.667V290.006Z" fill="white"/>
<path d="M1260 230.673V242.006H1273.33H1286.67V230.673V219.339H1273.33H1260V230.673Z" fill="white"/>
<path d="M822.667 239.339V258.006H815.333H808V268.006V278.006H815.2H822.533L822.933 311.739L823.333 345.606L827.2 350.539C832.8 358.006 839.733 360.673 853.6 360.673C869.6 360.673 869.333 360.939 869.333 349.339V339.606L861.467 339.073C848.933 338.139 849.333 339.339 849.333 306.539V278.006H859.333H869.333V268.006V258.006H859.333H849.333V239.339V220.673H836H822.667V239.339Z" fill="white"/>
<path d="M244.8 256.139C229.867 261.606 224.533 271.073 222.4 296.006C219.333 332.806 227.333 352.806 247.467 358.673C256.267 361.206 269.467 361.206 280.533 358.673C292.267 355.873 296.267 354.006 295.333 351.606C294.933 350.406 294.267 346.006 293.733 341.739C293.067 335.206 292.533 334.006 290.8 334.806C270.8 343.606 255.2 342.806 250 332.806C248.933 330.673 247.6 325.606 247.2 321.473L246.267 314.006H271.2H296V307.606C295.867 293.739 293.467 276.939 290.933 271.873C287.2 264.673 280.4 258.539 273.467 256.006C266.267 253.473 251.733 253.606 244.8 256.139ZM264.8 272.139C268.933 273.206 272 279.606 272.933 289.339L273.733 298.006H260.133H246.667V292.939C246.667 285.873 250.267 274.406 253.067 272.806C255.6 271.206 260.533 270.939 264.8 272.139Z" fill="white"/>
<path d="M633.733 255.339C622.933 257.606 614.8 263.206 610.667 271.339C606.267 280.006 605.067 289.739 605.6 312.673C606 333.073 606.267 335.206 609.467 342.006C613.467 350.539 620.533 356.673 628.8 359.073C636 361.206 652.933 361.073 660.8 359.073C668.133 357.073 676.533 350.273 680.133 343.206C686.133 331.206 686.533 288.939 680.533 274.139C677.867 267.473 668.133 258.539 661.467 256.673C654.267 254.673 640.133 254.006 633.733 255.339ZM649.867 276.673C656.533 279.206 657.6 283.873 657.067 310.273L656.667 334.273L652.933 337.473C645.333 343.873 635.6 340.539 633.333 330.673C631.2 321.739 631.733 288.006 634 282.673C636.667 276.273 642.667 273.873 649.867 276.673Z" fill="white"/>
<path d="M762 255.873C761.333 256.273 758.933 256.806 756.933 257.206C752.667 258.273 742.133 267.339 738.533 273.339L736 277.339V267.606V258.006H724.267H712.4L711.6 292.273C711.067 311.073 710.667 333.873 710.667 342.939V359.339H724.667H738.667V324.139V288.939L744 284.673C746.8 282.406 751.333 280.139 753.733 279.739C757.467 279.206 758.667 279.606 761.067 282.673C763.867 286.273 764 287.473 764 322.806V359.339H777.333H790.667V316.006C790.667 275.473 790.533 272.273 788 267.473C786.533 264.539 783.467 261.073 781.067 259.606C776.933 257.073 765.067 254.806 762 255.873Z" fill="white"/>
<path d="M918 256.539C907.733 259.206 900.533 265.473 895.867 276.006C893.067 282.139 892.8 284.539 892.8 308.673C892.667 333.206 892.933 335.073 895.867 341.739C899.467 349.873 907.067 356.939 914.533 359.073C921.2 361.073 943.6 361.073 949.467 359.073C956.933 356.539 963.6 350.406 967.6 342.273C971.2 334.806 971.2 334.273 971.2 310.006C971.2 282.273 969.733 274.939 962.267 266.406C955.6 258.806 949.067 256.273 934.667 255.873C927.733 255.606 920.267 255.873 918 256.539ZM940.267 278.939C941.467 280.006 943.2 284.406 944.133 288.539C946.133 298.539 945.2 329.206 942.533 334.673C938.533 343.073 927.867 343.873 922.133 336.273C919.6 332.806 919.333 330.406 918.933 309.606C918.4 287.339 918.533 286.539 921.6 282.006C926.133 275.339 934.667 273.873 940.267 278.939Z" fill="white"/>
<path d="M1078.67 256.539C1068.53 258.673 1059.33 266.406 1055.47 275.739C1052.13 284.006 1050.53 305.606 1052 322.939C1053.87 344.673 1059.2 353.606 1073.33 359.473C1079.87 362.006 1104.27 361.739 1110.67 358.939C1116.67 356.273 1124.27 348.939 1127.07 342.939C1130.53 335.739 1132.4 318.939 1131.47 302.673C1130.13 277.473 1125.47 266.806 1113.33 260.139C1107.87 257.206 1104.53 256.406 1094.93 256.006C1088.53 255.739 1081.2 255.873 1078.67 256.539ZM1100 280.139C1103.33 283.339 1103.33 283.473 1103.33 308.406C1103.33 330.006 1103.07 334.006 1101.07 336.939C1098 341.606 1091.2 343.073 1085.6 340.139C1079.6 337.073 1078.4 331.073 1078.93 305.339C1079.33 285.873 1079.6 283.339 1082 280.673C1087.33 274.673 1094.4 274.539 1100 280.139Z" fill="white"/>
<path d="M1170.67 257.606C1165.33 260.406 1160.67 266.673 1158.27 274.539C1157.2 278.139 1156.67 289.606 1156.67 308.673C1156.67 340.939 1157.47 344.273 1166.4 351.073C1170.67 354.273 1172.27 354.673 1182 354.673C1192 354.673 1193.33 354.406 1198.13 350.673C1200.93 348.539 1204.4 345.473 1205.6 344.006C1207.87 341.473 1207.87 341.873 1208 354.806C1208 367.073 1207.73 368.406 1205.07 370.939C1200.4 375.073 1196.67 376.673 1191.2 376.673C1186.4 376.673 1177.33 372.273 1177.33 369.873C1177.33 367.073 1172 369.073 1160.13 376.539C1156.53 378.673 1164.13 386.673 1172.93 390.139C1195.87 398.806 1222.13 392.139 1230.67 375.339C1235.07 366.673 1236 354.806 1236 304.939V256.673H1223.33H1210.8L1210.4 265.473L1210 274.406L1206.67 269.206C1201.47 261.073 1192.93 256.139 1183.33 255.606C1177.6 255.339 1174 255.873 1170.67 257.606ZM1205.2 285.606C1208.67 288.273 1208.67 288.539 1209.07 307.339C1209.47 328.139 1209.07 329.339 1201.07 333.473C1195.87 336.139 1191.47 335.739 1187.6 332.139C1184.67 329.473 1184.13 327.473 1183.33 317.606C1182 301.606 1183.47 288.806 1187.07 284.939C1189.47 282.273 1190.93 281.873 1195.87 282.406C1199.07 282.806 1203.2 284.273 1205.2 285.606Z" fill="white"/>
<path d="M1324 259.339C1317.2 261.873 1306.67 268.139 1306.67 269.739C1306.67 270.273 1314.53 281.206 1318.13 285.873C1318.4 286.139 1320.4 284.806 1322.8 282.806C1332 275.073 1345.73 272.806 1352.53 278.139C1355.47 280.406 1356 281.873 1356 288.006V295.073L1348.8 295.873C1329.47 298.406 1315.47 306.273 1308.93 318.539C1306.67 322.939 1306 326.273 1306 335.339C1306 345.606 1306.4 347.206 1309.73 352.273C1318.93 365.739 1341.07 366.806 1354.8 354.406L1359.87 349.739L1364 354.539C1368.4 359.606 1374.67 362.006 1383.07 362.006H1388V353.206C1388 346.273 1387.47 343.873 1385.73 342.539C1383.6 341.073 1383.2 337.339 1382.67 308.273L1382 275.606L1378 269.739C1372 261.339 1362.13 257.473 1344.67 257.073C1334.13 256.806 1329.87 257.339 1324 259.339ZM1356 316.539C1356 328.806 1354.4 335.339 1350.67 339.339C1344.13 346.273 1333.2 343.873 1331.33 335.206C1329.87 328.673 1331.73 322.673 1336.67 317.873C1341.07 313.606 1352.8 308.273 1354.93 309.473C1355.6 309.873 1356 313.073 1356 316.539Z" fill="white"/>
<path d="M1260 310.006V360.673H1273.33H1286.67V310.006V259.339H1273.33H1260V310.006Z" fill="white"/>
</svg>
